<svg width="374" height="377" viewBox="0 0 374 377" fill="none" xmlns="http://www.w3.org/2000/svg">
<path d="M221.145 234.12L208.284 322.945L125.255 357.023L55.085 302.276L67.9443 213.452L150.975 179.373L221.145 234.12ZM317.562 111.627L304.701 200.451L221.672 234.53L151.502 179.783L164.361 90.958L247.392 56.8799L317.562 111.627Z" fill="black"/>
<mask id="path-2-inside-1_1_40" fill="white">
<path d="M373.025 253.747L360.165 342.571L277.136 376.65L277.071 376.6L277.106 376.36L207 321.663L219.825 233.078L302.855 199L373.025 253.747Z"/>
</mask>
<path d="M373.025 253.747L360.165 342.571L277.136 376.65L277.071 376.6L277.106 376.36L207 321.663L219.825 233.078L302.855 199L373.025 253.747Z" fill="#FF9D00"/>
<path d="M373.025 253.747L377.974 254.464L378.39 251.591L376.101 249.805L373.025 253.747ZM360.165 342.571L362.064 347.197L364.704 346.113L365.113 343.288L360.165 342.571ZM277.136 376.65L274.041 380.578L276.334 382.384L279.034 381.276L277.136 376.65ZM277.071 376.6L272.124 375.873L271.704 378.736L273.977 380.527L277.071 376.6ZM277.106 376.36L282.053 377.087L282.476 374.208L280.182 372.418L277.106 376.36ZM207 321.663L202.052 320.947L201.636 323.82L203.924 325.605L207 321.663ZM219.825 233.078L217.927 228.453L215.286 229.536L214.877 232.362L219.825 233.078ZM302.855 199L305.931 195.058L303.642 193.272L300.957 194.374L302.855 199ZM373.025 253.747L368.077 253.031L355.217 341.855L360.165 342.571L365.113 343.288L377.974 254.464L373.025 253.747ZM360.165 342.571L358.267 337.946L275.237 372.025L277.136 376.65L279.034 381.276L362.064 347.197L360.165 342.571ZM277.136 376.65L280.23 372.723L280.166 372.672L277.071 376.6L273.977 380.527L274.041 380.578L277.136 376.65ZM277.071 376.6L282.018 377.326L282.053 377.087L277.106 376.36L272.16 375.633L272.124 375.873L277.071 376.6ZM277.106 376.36L280.182 372.418L210.076 317.721L207 321.663L203.924 325.605L274.031 380.302L277.106 376.36ZM207 321.663L211.948 322.38L224.774 233.795L219.825 233.078L214.877 232.362L202.052 320.947L207 321.663ZM219.825 233.078L221.724 237.704L304.754 203.626L302.855 199L300.957 194.374L217.927 228.453L219.825 233.078ZM302.855 199L299.78 202.942L369.95 257.689L373.025 253.747L376.101 249.805L305.931 195.058L302.855 199Z" fill="black" mask="url(#path-2-inside-1_1_40)"/>
<mask id="path-4-inside-2_1_40" fill="white">
<path d="M166.06 91.7471L153.199 180.571L70.1699 214.65L0 159.903L12.8594 71.0781L95.8896 37L166.06 91.7471Z"/>
</mask>
<path d="M166.06 91.7471L153.199 180.571L70.1699 214.65L0 159.903L12.8594 71.0781L95.8896 37L166.06 91.7471Z" fill="#FF9D00"/>
<path d="M166.06 91.7471L171.008 92.4635L171.424 89.5906L169.135 87.805L166.06 91.7471ZM153.199 180.571L155.098 185.197L157.739 184.113L158.148 181.288L153.199 180.571ZM70.1699 214.65L67.0943 218.593L69.383 220.378L72.0685 219.276L70.1699 214.65ZM0 159.903L-4.94841 159.187L-5.36432 162.06L-3.07567 163.845L0 159.903ZM12.8594 71.0781L10.9609 66.4526L8.31998 67.5365L7.91096 70.3617L12.8594 71.0781ZM95.8896 37L98.9653 33.0579L96.6766 31.2722L93.9912 32.3744L95.8896 37ZM166.06 91.7471L161.111 91.0306L148.251 179.855L153.199 180.571L158.148 181.288L171.008 92.4635L166.06 91.7471ZM153.199 180.571L151.301 175.946L68.2714 210.025L70.1699 214.65L72.0685 219.276L155.098 185.197L153.199 180.571ZM70.1699 214.65L73.2456 210.708L3.07567 155.961L0 159.903L-3.07567 163.845L67.0943 218.593L70.1699 214.65ZM0 159.903L4.94841 160.62L17.8078 71.7945L12.8594 71.0781L7.91096 70.3617L-4.94841 159.187L0 159.903ZM12.8594 71.0781L14.7578 75.7037L97.7881 41.6256L95.8896 37L93.9912 32.3744L10.9609 66.4526L12.8594 71.0781ZM95.8896 37L92.814 40.9421L162.984 95.6892L166.06 91.7471L169.135 87.805L98.9653 33.0579L95.8896 37Z" fill="black" mask="url(#path-4-inside-2_1_40)"/>
<line x1="246.067" y1="65.9462" x2="263.206" y2="1.98324" stroke="black" stroke-width="8"/>
<line x1="311.31" y1="112.36" x2="371.325" y2="84.3748" stroke="black" stroke-width="8"/>
</svg>
